<mxfile host="app.diagrams.net" modified="2024-09-05T14:06:12.351Z" agent="Mozilla/5.0 (Windows NT 10.0; Win64; x64) AppleWebKit/537.36 (KHTML, like Gecko) Chrome/128.0.0.0 Safari/537.36" version="24.4.0" etag="4uF6cKNb-0oLVhsgEtrk" type="github">
  <diagram name="第 1 页" id="QClTNXcgWMtWeMr5wYIb">
    <mxGraphModel>
      <root>
        <mxCell id="0" />
        <mxCell id="1" parent="0" />
      </root>
    </mxGraphModel>
  </diagram>
</mxfile>
